# AST/ASF file generated using VICON BodyLanguage
# -----------------------------------------------
:version 1.10
:name VICON
:units
  mass 1.0
  length 0.45
  angle deg
:documentation
   .ast/.asf automatically generated from VICON data using
   VICON BodyBuilder and BodyLanguage model FoxedUp or BRILLIANT.MOD
:root
   order TX TY TZ RX RY RZ
   axis XYZ
   position 0 0 0  
   orientation 0 0 0 
:bonedata
  begin
     id 1 
     name lhipjoint
     direction 0.521689 -0.742065 0.420928 
     length 2.47002 
     axis 0 0 0  XYZ
  end
  begin
     id 2 
     name lfemur
     direction 0.34202 -0.939693 0  
     length 7.24654  
     axis 0 0 20  XYZ
    dof rx ry rz
    limits (-160.0 20.0)
           (-70.0 70.0)
           (-60.0 70.0)
  end
  begin
     id 3 
     name ltibia
     direction 0.34202 -0.939693 0   
     length 8.04849   
     axis 0 0 20   XYZ
    dof rx
    limits (-10.0 170.0)
  end
  begin
     id 4 
     name lfoot
     direction 0.0745411 -0.2048 0.975961   
     length 1.72367   
     axis -90 7.62852e-016 20   XYZ
    dof rx rz
    limits (-45.0 90.0)
           (-70.0 20.0)
  end
  begin
     id 5 
     name ltoes
     direction 1.53556e-011 -4.21901e-011 1   
     length 0.87311   
     axis -90 7.62852e-016 20   XYZ
    dof rx
    limits (-90.0 20.0)
  end
  begin
     id 6 
     name rhipjoint
     direction -0.52849 -0.738415 0.418857   
     length 2.48223  
     axis 0 0 0  XYZ 
  end
  begin
     id 7 
     name rfemur
     direction -0.34202 -0.939693 0   
     length 7.15571   
     axis 0 0 -20   XYZ
    dof rx ry rz
    limits (-160.0 20.0)
           (-70.0 70.0)
           (-70.0 60.0)
  end
  begin
     id 8 
     name rtibia
     direction -0.34202 -0.939693 0   
     length 7.81659   
     axis 0 0 -20   XYZ
    dof rx
    limits (-10.0 170.0)
 end
 begin
     id 9 
     name rfoot
     direction -0.0917348 -0.252039 0.963359   
     length 1.84382  
     axis -90 -7.62852e-016 -20   XYZ
    dof rx rz
    limits (-45.0 90.0)
           (-20.0 70.0)
  end
  begin
     id 10 
     name rtoes
     direction -1.53551e-011 -4.21879e-011 1   
     length 0.927771   
     axis -90 -7.62852e-016 -20   XYZ
    dof rx
    limits (-90.0 20.0)
  end
  begin
     id 11 
     name lowerback
     direction 0.00583058 0.999822 0.0179296   
     length 2.1429   
     axis 0 0 0   XYZ
    dof rx ry rz
    limits (-20.0 45.0)
           (-30.0 30.0)
           (-30.0 30.0)
  end
  begin
     id 12 
     name upperback
     direction -0.0137999 0.999752 -0.0175071   
     length 2.14252   
     axis 0 0 0   XYZ
    dof rx ry rz
    limits (-20.0 45.0)
           (-30.0 30.0)
           (-30.0 30.0)
  end
  begin
     id 13 
     name thorax
     direction -0.0158036 0.99955 -0.0254909   
     length 2.1383   
     axis 0 0 0   XYZ
    dof rx ry rz
    limits (-20.0 45.0)
           (-30.0 30.0)
           (-30.0 30.0)
  end
  begin
     id 14 
     name lowerneck
     direction -0.0101179 0.999403 -0.0330262   
     length 1.65808   
     axis 0 0 0   XYZ
    dof rx ry rz
    limits (-20.0 45.0)
           (-30.0 30.0)
           (-30.0 30.0)
  end
  begin
     id 15 
     name upperneck
     direction 0.0497734 0.995978 -0.074501   
     length 1.5897   
     axis 0 0 0   XYZ
    dof rx ry rz
    limits (-20.0 45.0)
           (-30.0 30.0)
           (-30.0 30.0)
  end
  begin
     id 16
     name head
     direction 0.0189524 0.999519 -0.0245438  
     length 1.74024  
     axis 0 0 0   XYZ
    dof rx ry rz
    limits (-20.0 45.0)
           (-30.0 30.0)
           (-30.0 30.0)
  end
  begin
     id 17 
     name lclavicle
     direction 0.945604 0.324422 0.0241537  
     length 3.59089  
     axis 0 0 0   XYZ
    dof ry rz
    limits (-20.0 10.0)
           (0.0 20.0)
  end
  begin
     id 18 
     name lhumerus
     direction 1 -4.48964e-011 -2.63524e-027   
     length 5.2391   
     axis 180 -30 -90   XYZ
    dof rx ry rz
    limits (-60.0 90.0)
           (-90.0 90.0)
           (-90.0 90.0)
  end
  begin
     id 19
     name lradius
     direction 1 -4.48969e-011 3.86978e-028   
     length 3.31467   
     axis 180 -30 -90   XYZ
    dof rx
    limits (-10.0 170.0)
  end
  begin
     id 20
     name lwrist
     direction 1 -4.48963e-011 7.20928e-028   
     length 1.65734   
     axis -5.52449e-016 90 90   XYZ
    dof ry
    limits (-180.0 0.0)
 end
  begin
     id 21 
     name lhand
     direction 1 -4.48964e-011 1.44186e-027   
     length 0.9659   
     axis -9.20027e-016 90 90   XYZ
    dof rx rz
    limits (-90.0 90.0)
           (-45.0 45.0)
  end
  begin
     id 22 
     name lfingers
     direction 1 -4.48965e-011 2.88371e-027   
     length 0.778733   
     axis -1.84005e-015 90 90   XYZ
    dof rx
    limits (0.0 90.0)
  end
  begin
     id 23
     name lthumb
     direction 0.707107 -6.34931e-011 0.707107   
     length 1.11811   
     axis -90 45 2.85299e-015   XYZ
    dof rx rz
    limits (-45.0 45.0)
           (-45.0 45.0)
  end
  begin
     id 24 
     name rclavicle
     direction -0.923762 0.370785 0.0958234   
     length 3.54196  
     axis 0 0 0   XYZ 
    dof ry rz
    limits (-10.0 20.0)
           (-20.0 0.0)
  end
  begin
     id 25 
     name rhumerus
     direction -1 -4.48966e-011 1.18702e-017  
     length 5.30252   
     axis 180 30 90   XYZ
    dof rx ry rz
    limits (-90.0 60.0)
           (-90.0 90.0)
           (-90.0 90.0)
  end
  begin
     id 26 
     name rradius
     direction -1 -4.48966e-011 4.46736e-027   
     length 3.67875   
     axis 180 30 90   XYZ
    dof rx
    limits (-10.0 170.0)
  end
  begin
     id 27 
     name rwrist
     direction -1 -4.48966e-011 7.20928e-028   
     length 1.83937   
     axis -5.52449e-016 -90 -90   XYZ
    dof ry
    limits (-180.0 0.0)
  end
  begin
     id 28
     name rhand
     direction -1 -4.48973e-011 1.44186e-027   
     length 0.594811   
     axis -9.20027e-016 -90 -90   XYZ
    dof rx rz
    limits (-90.0 90.0)
           (-45.0 45.0)
  end
  begin
     id 29
     name rfingers
     direction -1 -4.48963e-011 2.88371e-027   
     length 0.479552   
     axis -1.84005e-015 -90 -90   XYZ
    dof rx
    limits (0.0 90.0)
  end
  begin
     id 30
     name rthumb
     direction -0.707107 -6.34932e-011 0.707107   
     length 0.688544   
     axis -90 -45 -2.85299e-015   XYZ
    dof rx rz
    limits (-45.0 45.0)
           (-45.0 45.0)
  end
:hierarchy
  begin
    root lhipjoint rhipjoint lowerback
    lhipjoint lfemur
    lfemur ltibia
    ltibia lfoot
    lfoot ltoes
    rhipjoint rfemur
    rfemur rtibia
    rtibia rfoot
    rfoot rtoes
    lowerback upperback
    upperback thorax
    thorax lowerneck lclavicle rclavicle
    lowerneck upperneck
    upperneck head
    lclavicle lhumerus
    lhumerus lradius
    lradius lwrist
    lwrist lhand lthumb
    lhand lfingers
    rclavicle rhumerus
    rhumerus rradius
    rradius rwrist
    rwrist rhand rthumb
    rhand rfingers
  end

#!OML:ASF E:\acrobat2\Project_11_07_03\Capture day 1\Session 1\Acrobat.ASF
:FULLY-SPECIFIED
:DEGREES
166
root 9.07469 18.0036 -32.1485 94.8142 -88.8382 -90.4047
lowerback -6.56705 0.824556 2.91255
upperback -4.15528 0.835556 -0.609072
thorax -0.5522 0.311266 -2.21057
lowerneck -3.37529 3.90503 1.38782
upperneck 8.36137 4.73786 4.07516
head 3.20694 2.51634 1.26261
rclavicle -1.68967e-015 5.96354e-015
rhumerus -13.0545 -28.555 -6.99147
rradius 20.9501
rwrist 19.2287
rhand -6.65996 -49.7212
rfingers 7.12502
rthumb 19.1978 -78.7937
lclavicle -1.68967e-015 5.96354e-015
lhumerus 1.53124 12.3582 7.49529
lradius 20.1909
lwrist 3.69187
lhand -7.03733 -5.30228
lfingers 7.12502
lthumb 18.8349 23.8058
rfemur 7.69977 16.72 14.6661
rtibia -2.47306
rfoot -25.2837 -29.5459
rtoes 3.13419
lfemur 7.90486 -7.78768 -6.12657
ltibia -2.41836
lfoot -27.6284 4.65631
ltoes 42.4961
167
root 9.07616 18.0034 -32.1485 95.8091 -88.9364 -91.4148
lowerback -6.53892 0.81542 2.82691
upperback -4.14396 0.829358 -0.638349
thorax -0.556978 0.309748 -2.19322
lowerneck -3.3487 3.89093 1.38128
upperneck 8.38028 4.71873 4.0762
head 3.20849 2.50644 1.26306
rclavicle -1.36664e-015 3.57812e-015
rhumerus -13.0408 -28.5151 -6.99693
rradius 20.9556
rwrist 19.1961
rhand -6.68961 -49.7668
rfingers 7.12502
rthumb 19.1693 -78.8421
lclavicle -1.36664e-015 3.57812e-015
lhumerus 1.49248 12.1357 7.42057
lradius 20.1845
lwrist 3.95909
lhand -7.13663 -5.35675
lfingers 7.12502
lthumb 18.7394 23.7606
rfemur 7.73917 16.8631 14.5865
rtibia -2.50071
rfoot -25.2131 -29.7141
rtoes 1.7839
lfemur 7.96147 -7.99344 -6.30702
ltibia -2.49606
lfoot -27.9025 4.54893
ltoes 43.0602
168
root 9.07675 18.0032 -32.1482 96.1702 -88.9854 -91.7915
lowerback -6.53613 0.819799 2.81443
upperback -4.12166 0.836659 -0.674125
thorax -0.53472 0.314215 -2.22254
lowerneck -3.34835 3.88352 1.34653
upperneck 8.37852 4.70747 4.11806
head 3.20618 2.50117 1.28218
rclavicle 1.11816e-015 2.38542e-015
rhumerus -13.0706 -28.4221 -6.99815
rradius 20.97
rwrist 19.0557
rhand -6.68544 -49.9198
rfingers 7.12502
rthumb 19.1733 -78.9947
lclavicle 1.11816e-015 2.38542e-015
lhumerus 1.50982 12.0395 7.36709
lradius 20.1815
lwrist 4.00302
lhand -7.20029 -5.42274
lfingers 7.12502
lthumb 18.6782 23.7005
rfemur 7.77444 16.8174 14.5162
rtibia -2.54754
rfoot -25.0208 -29.6968
rtoes 1.54755
lfemur 8.01093 -8.10114 -6.41232
ltibia -2.53256
lfoot -27.924 4.6871
ltoes 42.9324
169
root 9.07812 18.0044 -32.1487 97.4304 -88.9865 -93.0487
lowerback -6.54338 0.849107 2.84639
upperback -4.10731 0.87418 -0.698704
thorax -0.512966 0.332872 -2.26338
lowerneck -3.35636 3.87472 1.31399
upperneck 8.36333 4.69535 4.15366
head 3.20105 2.49536 1.29878
rclavicle 3.03147e-015 6.36111e-015
rhumerus -13.1518 -28.377 -6.9489
rradius 20.9887
rwrist 18.9869
rhand -6.69737 -50.0126
rfingers 7.12502
rthumb 19.1619 -79.0886
lclavicle 3.03147e-015 6.36111e-015
lhumerus 1.59033 12.1105 7.39499
lradius 20.1714
lwrist 3.88841
lhand -7.23716 -5.44866
lfingers 7.12502
lthumb 18.6427 23.678
rfemur 7.76013 16.7383 14.4855
rtibia -2.56637
rfoot -24.9294 -29.6487
rtoes 1.85076
lfemur 7.99503 -8.02082 -6.4022
ltibia -2.49363
lfoot -27.8259 4.80886
ltoes 42.4991
170
root 9.08031 18.0065 -32.1498 99.2015 -88.9784 -94.7997
lowerback -6.54454 0.895559 2.87977
upperback -4.11058 0.93418 -0.720856
thorax -0.511342 0.362004 -2.3013
lowerneck -3.37915 3.83881 1.28728
upperneck 8.39748 4.64676 4.15539
head 3.21727 2.47108 1.30371
rclavicle 1.05107e-014 -1.98785e-015
rhumerus -13.2888 -28.3214 -6.84479
rradius 21.019
rwrist 18.894
rhand -6.69366 -50.0313
rfingers 7.12502
rthumb 19.1654 -79.107
lclavicle 1.05107e-014 -1.98785e-015
lhumerus 1.71505 12.2427 7.48069
lradius 20.1474
lwrist 3.75784
lhand -7.14911 -5.41859
lfingers 7.12502
lthumb 18.7274 23.6999
rfemur 7.70481 16.7468 14.4821
rtibia -2.54135
rfoot -24.9838 -29.6032
rtoes 2.35981
lfemur 7.95894 -8.05298 -6.40444
ltibia -2.46247
lfoot -27.9778 4.82701
ltoes 42.4203
171
root 9.08155 18.0071 -32.1509 101.436 -89.0707 -97.0253
lowerback -6.53447 0.905652 2.78493
upperback -4.11556 0.952883 -0.760319
thorax -0.52153 0.372348 -2.28768
lowerneck -3.41024 3.82464 1.29229
upperneck 8.47289 4.62316 4.1536
head 3.24978 2.46043 1.30422
rclavicle 5.69021e-015 -6.36111e-015
rhumerus -13.3368 -28.2704 -6.81057
rradius 21.0438
rwrist 18.8151
rhand -6.58847 -50.0822
rfingers 7.12502
rthumb 19.2666 -79.1478
lclavicle 5.69021e-015 -6.36111e-015
lhumerus 1.73638 12.2468 7.47585
lradius 20.1519
lwrist 3.71834
lhand -7.23595 -5.48047
lfingers 7.12502
lthumb 18.6439 23.6461
rfemur 7.6792 16.7605 14.3573
rtibia -2.53791
rfoot -25.0426 -29.5676
rtoes 2.80881
lfemur 7.95261 -8.14242 -6.54728
ltibia -2.45824
lfoot -28.1424 4.84945
ltoes 42.4676
172
root 9.08321 18.0057 -32.1527 102.785 -89.1228 -98.3581
lowerback -6.51431 0.900618 2.76762
upperback -4.13002 0.947459 -0.815654
thorax -0.547344 0.368567 -2.33569
lowerneck -3.41611 3.83798 1.30795
upperneck 8.52976 4.63019 4.22489
head 3.26929 2.46724 1.32666
rclavicle -5.98839e-015 2.18663e-015
rhumerus -13.3487 -28.2586 -6.85421
rradius 21.0492
rwrist 18.7967
rhand -6.56445 -50.0856
rfingers 7.12502
rthumb 19.2897 -79.1489
lclavicle -5.98839e-015 2.18663e-015
lhumerus 1.7139 12.1165 7.37509
lradius 20.1867
lwrist 3.7853
lhand -7.5376 -5.66458
lfingers 7.12502
lthumb 18.3537 23.4896
rfemur 7.65419 16.7315 14.2674
rtibia -2.55736
rfoot -24.9684 -29.5989
rtoes 2.14318
lfemur 7.93398 -8.17355 -6.60958
ltibia -2.46084
lfoot -28.204 4.8016
ltoes 42.7324
173
root 9.085 18.005 -32.1545 102.643 -89.0671 -98.1978
lowerback -6.4979 0.934612 2.8936
upperback -4.14235 0.986516 -0.855322
thorax -0.564517 0.384837 -2.44535
lowerneck -3.38949 3.81788 1.352
upperneck 8.5462 4.59665 4.25423
head 3.27094 2.45258 1.32706
rclavicle -8.34896e-015 1.13307e-014
rhumerus -13.4748 -28.2493 -6.81296
rradius 21.0547
rwrist 18.7482
rhand -6.63157 -50.0824
rfingers 7.12502
rthumb 19.2251 -79.1521
lclavicle -8.34896e-015 1.13307e-014
lhumerus 1.80657 12.0324 7.36953
lradius 20.2081
lwrist 3.86239
lhand -7.70087 -5.79008
lfingers 7.12502
lthumb 18.1966 23.3788
rfemur 7.62489 16.6897 14.3176
rtibia -2.56711
rfoot -24.7798 -29.6074
rtoes 1.20363
lfemur 7.89899 -8.1427 -6.51747
ltibia -2.44136
lfoot -28.1556 4.75642
ltoes 42.9688
174
root 9.08548 18.0062 -32.156 104.652 -89.1039 -100.195
lowerback -6.51435 0.974398 2.86481
upperback -4.13978 1.04046 -0.883397
thorax -0.549247 0.412311 -2.4546
lowerneck -3.36529 3.78034 1.41305
upperneck 8.54932 4.5476 4.19327
head 3.27105 2.42766 1.29423
rclavicle 6.4605e-016 -2.78299e-015
rhumerus -13.6021 -28.2404 -6.71084
rradius 21.0671
rwrist 18.7002
rhand -6.63067 -50.1615
rfingers 7.12502
rthumb 19.226 -79.2311
lclavicle 6.4605e-016 -2.78299e-015
lhumerus 1.91213 11.9793 7.4375
lradius 20.2228
lwrist 3.99672
lhand -7.61213 -5.81274
lfingers 7.12502
lthumb 18.282 23.3481
rfemur 7.60639 16.658 14.2538
rtibia -2.58638
rfoot -24.6258 -29.5523
rtoes 1.60393
lfemur 7.87493 -8.00538 -6.52462
ltibia -2.42464
lfoot -28.0068 4.81633
ltoes 42.6746
175
root 9.08632 18.007 -32.1579 106.53 -89.1989 -102.048
lowerback -6.54509 0.974942 2.74079
upperback -4.14041 1.04648 -0.905857
thorax -0.533872 0.417391 -2.40726
lowerneck -3.3588 3.77578 1.42594
upperneck 8.55906 4.54271 4.166
head 3.27415 2.42469 1.28298
rclavicle 4.52235e-015 7.15625e-015
rhumerus -13.6292 -28.2797 -6.68933
rradius 21.0857
rwrist 18.6947
rhand -6.61031 -50.2629
rfingers 7.12502
rthumb 19.2456 -79.3306
lclavicle 4.52235e-015 7.15625e-015
lhumerus 1.92536 11.9747 7.45769
lradius 20.2529
lwrist 4.11146
lhand -7.51303 -5.85504
lfingers 7.12502
lthumb 18.3773 23.2969
rfemur 7.5809 16.6591 14.1244
rtibia -2.60784
rfoot -24.5872 -29.5621
rtoes 1.96921
lfemur 7.83008 -7.972 -6.62601
ltibia -2.4003
lfoot -28.0389 4.86414
ltoes 42.3719
176
root 9.08778 18.0069 -32.1594 106.529 -89.2512 -102.032
lowerback -6.55732 0.950806 2.67625
upperback -4.13445 1.01745 -0.909991
thorax -0.523571 0.404232 -2.37681
lowerneck -3.36049 3.78781 1.45515
upperneck 8.56978 4.5634 4.08917
head 3.28022 2.43337 1.25398
rclavicle 4.39811e-015 -3.57812e-015
rhumerus -13.5774 -28.2419 -6.73451
rradius 21.1041
rwrist 18.5762
rhand -6.66602 -50.3164
rfingers 7.12502
rthumb 19.192 -79.3894
lclavicle 4.39811e-015 -3.57812e-015
lhumerus 1.88565 12.015 7.43683
lradius 20.2729
lwrist 4.13237
lhand -7.44998 -5.83167
lfingers 7.12502
lthumb 18.438 23.3145
rfemur 7.57881 16.7786 14.0902
rtibia -2.59753
rfoot -24.7322 -29.6067
rtoes 1.618
lfemur 7.7915 -8.02975 -6.69441
ltibia -2.3714
lfoot -28.1368 4.86446
ltoes 42.4122
177
root 9.08843 18.0062 -32.1604 106.999 -89.2831 -102.491
lowerback -6.56754 0.937304 2.64237
upperback -4.12725 1.0011 -0.913749
thorax -0.511876 0.396936 -2.36246
lowerneck -3.35829 3.79121 1.50156
upperneck 8.57319 4.57278 4.0003
head 3.28393 2.43642 1.21739
rclavicle 2.5842e-015 -5.36719e-015
rhumerus -13.5326 -28.1742 -6.75179
rradius 21.1015
rwrist 18.4789
rhand -6.70445 -50.3454
rfingers 7.12502
rthumb 19.1551 -79.4221
lclavicle 2.5842e-015 -5.36719e-015
lhumerus 1.86685 11.954 7.40288
lradius 20.2803
lwrist 4.21558
lhand -7.15341 -5.67518
lfingers 7.12502
lthumb 18.7233 23.4437
rfemur 7.59181 16.9295 14.0894
rtibia -2.59315
rfoot -25.0053 -29.6135
rtoes 2.06317
lfemur 7.77185 -7.93355 -6.70228
ltibia -2.36667
lfoot -28.059 4.83241
ltoes 42.4114
178
root 9.08957 18.0055 -32.1611 107.618 -89.267 -103.097
lowerback -6.55572 0.948687 2.66696
upperback -4.13933 1.015 -0.913919
thorax -0.529713 0.402892 -2.37585
lowerneck -3.32074 3.773 1.51581
upperneck 8.55368 4.55273 3.95944
head 3.27154 2.42486 1.19933
rclavicle 1.2921e-015 -5.96354e-016
rhumerus -13.5722 -28.2621 -6.69996
rradius 21.0955
rwrist 18.6454
rhand -6.62065 -50.3903
rfingers 7.12502
rthumb 19.2356 -79.459
lclavicle 1.2921e-015 -5.96354e-016
lhumerus 1.8868 11.8691 7.40959
lradius 20.2921
lwrist 4.32779
lhand -6.90917 -5.58199
lfingers 7.12502
lthumb 18.9582 23.5141
rfemur 7.55762 16.8468 14.0816
rtibia -2.60188
rfoot -25.0327 -29.5509
rtoes 2.94092
lfemur 7.7853 -8.04003 -6.71308
ltibia -2.41107
lfoot -28.1898 4.82262
ltoes 42.4406
179
root 9.09151 18.0057 -32.1628 106.1 -89.1487 -101.553
lowerback -6.53231 0.976406 2.82123
upperback -4.16908 1.04384 -0.91103
thorax -0.569515 0.413214 -2.45839
lowerneck -3.29324 3.74304 1.54439
upperneck 8.56421 4.51289 3.93197
head 3.27181 2.40471 1.18348
rclavicle 1.3418e-015 1.78906e-015
rhumerus -13.6798 -28.2137 -6.65008
rradius 21.1231
rwrist 18.6765
rhand -6.55724 -50.4345
rfingers 7.12502
rthumb 19.2966 -79.4972
lclavicle 1.3418e-015 1.78906e-015
lhumerus 1.94972 11.8027 7.41486
lradius 20.2991
lwrist 4.42438
lhand -6.91544 -5.57064
lfingers 7.12502
lthumb 18.9521 23.5261
rfemur 7.4814 16.7177 14.194
rtibia -2.57633
rfoot -24.8601 -29.5029
rtoes 3.12351
lfemur 7.76744 -8.15519 -6.58497
ltibia -2.43266
lfoot -28.2944 4.81137
ltoes 42.561
180
root 9.09247 18.006 -32.1643 105.67 -89.0707 -101.09
lowerback -6.53366 0.984728 2.94495
upperback -4.19347 1.04773 -0.924502
thorax -0.591774 0.411646 -2.54183
lowerneck -3.30882 3.74654 1.58077
upperneck 8.62702 4.51349 3.911
head 3.29787 2.40606 1.17237
rclavicle 7.1314e-015 -1.39149e-015
rhumerus -13.713 -28.0792 -6.67934
rradius 21.1475
rwrist 18.5843
rhand -6.54597 -50.411
rfingers 7.12502
rthumb 19.3074 -79.4726
lclavicle 7.1314e-015 -1.39149e-015
lhumerus 1.97546 11.6478 7.33908
lradius 20.2886
lwrist 4.61424
lhand -6.97991 -5.58185
lfingers 7.12502
lthumb 18.8901 23.5209
rfemur 7.42018 16.7323 14.2841
rtibia -2.52874
rfoot -24.9179 -29.4393
rtoes 3.4723
lfemur 7.68294 -7.85548 -6.39308
ltibia -2.36485
lfoot -27.9982 4.71515
ltoes 42.7483
